PathFileType  4	(X/Y/Z) C:\Users\antoi\Documents\MyRepositories\mobilecap\ResultsAnalysis
DataRate	CameraRate	NumFrames	NumMarkers	Units	OrigDataRate	OrigDataStartFrame	OrigNumFrames
100.0	100.0	7	51	mm	100.0	68	271
Frame#	Time	r_knee			r_shank_antsup			r_ankle			r_calc			r_5meta			r_toe			L_knee			L_shank_antsup			L_ankle			L_calc			L_5meta			L_toe			r_sh2			r_sh3			r_sh4			L_sh2			L_sh3			r_thigh1			r_thigh2			r_thigh3			r_thigh4			r_thigh5			L_thigh1			L_thigh2			L_thigh3			L_thigh4			r.ASIS			r.PSIS			L.ASIS			L.PSIS			C7			R_Shoulder			L_Shoulder			R_Sternum			L_Sternum			R_humerus			R_elbow_med			R_elbow_lat			R_forearm			R_wrist_radius			R_wrist_ulna			L_humerus			L_elbow_med			L_elbow_lat			L_forearm			L_wrist_radius			L_wrist_ulna			R_HJC			L_HJC			R_HJC_reg			L_HJC_reg			
		X1	Y1	Z1	X2	Y2	Z2	X3	Y3	Z3	X4	Y4	Z4	X5	Y5	Z5	X6	Y6	Z6	X7	Y7	Z7	X8	Y8	Z8	X9	Y9	Z9	X10	Y10	Z10	X11	Y11	Z11	X12	Y12	Z12	X13	Y13	Z13	X14	Y14	Z14	X15	Y15	Z15	X16	Y16	Z16	X17	Y17	Z17	X18	Y18	Z18	X19	Y19	Z19	X20	Y20	Z20	X21	Y21	Z21	X22	Y22	Z22	X23	Y23	Z23	X24	Y24	Z24	X25	Y25	Z25	X26	Y26	Z26	X27	Y27	Z27	X28	Y28	Z28	X29	Y29	Z29	X30	Y30	Z30	X31	Y31	Z31	X32	Y32	Z32	X33	Y33	Z33	X34	Y34	Z34	X35	Y35	Z35	X36	Y36	Z36	X37	Y37	Z37	X38	Y38	Z38	X39	Y39	Z39	X40	Y40	Z40	X41	Y41	Z41	X42	Y42	Z42	X43	Y43	Z43	X44	Y44	Z44	X45	Y45	Z45	X46	Y46	Z46	X47	Y47	Z47	X48	Y48	Z48	X49	Y49	Z49	X50	Y50	Z50	X51	Y51	Z51	

68	0.67000000	-988.05225	723.58498	-429.00029	-965.52551	648.28184	-430.88397	-1191.07496	401.96369	-434.78149	-1254.97229	376.04782	-476.24708	-1094.01142	349.11396	-410.43035	-1053.41202	361.96083	-465.15498	-979.49529	719.01674	-720.09141	-972.47127	621.93197	-704.28896	-1190.38656	409.44453	-711.11012	-1257.56293	376.04110	-667.61641	-1101.58160	351.82360	-740.50717	-1050.76092	362.70883	-687.28576	-1036.91272	560.59323	-420.02084	-1017.04258	696.52053	-398.80355	-1098.10146	611.03104	-392.54590	-1025.04711	678.86818	-754.93349	-1098.18253	577.50244	-759.78468	-1050.88658	963.26409	-381.75233	-1000.79997	861.89815	-395.85271	-1092.86295	810.87605	-422.37235	-1151.29938	910.19253	-397.65579	-1043.97517	813.91959	-397.84832	-1063.15528	983.31914	-765.89032	-997.56688	862.45531	-745.40014	-1164.92460	932.80010	-763.23598	-1098.66967	812.93139	-721.50325	-1043.84347	1104.15568	-470.19509	-1223.54050	1218.95083	-534.41056	-1053.67182	1104.88305	-683.55278	-1226.46282	1215.64584	-617.24847	-900.82087	1545.85233	-573.04753	-855.23896	1477.78439	-429.47195	-863.52622	1488.55206	-719.68981	-818.19229	1430.53023	-554.17344	-821.91265	1429.54364	-593.03760	-895.79479	1365.96593	-369.88488	-1091.00058	1254.27550	-349.03013	-1048.23736	1239.11827	-299.92665	-1021.78269	1147.80546	-298.89352	-1031.44622	1007.72323	-313.69922	-1062.28092	1006.93206	-292.71883	-913.09161	1400.20351	-796.32842	-1092.33787	1258.19147	-813.86986	-1048.53218	1259.61395	-866.65043	-1025.65205	1152.79149	-872.04688	-1017.95580	1028.27040	-855.75084	-1055.14632	1026.86985	-873.64125	-1155.27326	1059.75586	-468.78319	-1161.79832	1060.33100	-676.18773	-1137.44969	1078.35526	-494.80837	-1142.41577	1072.73862	-635.57478	
69	0.68000000	-980.89590	720.59147	-429.25797	-959.19666	645.04761	-431.86849	-1189.74180	403.36378	-435.18930	-1253.99713	378.32154	-476.61631	-1093.74019	349.17514	-410.43473	-1052.75598	361.47656	-465.18476	-973.73577	715.83281	-720.89068	-968.17428	619.12974	-704.58543	-1189.37426	410.24575	-711.59116	-1256.95305	377.32283	-667.62648	-1101.35108	351.67848	-740.59614	-1050.51227	362.24322	-687.57359	-1032.07065	558.72611	-420.66462	-1009.05373	694.63484	-398.41590	-1092.37924	610.15296	-392.87611	-1019.62407	675.57394	-754.05937	-1093.99490	576.01431	-760.07134	-1047.49210	958.75228	-382.15034	-994.48295	859.23714	-396.90349	-1087.24102	805.83800	-423.07176	-1147.21373	903.83025	-398.72892	-1038.29999	809.45648	-398.45802	-1061.15499	978.73097	-766.26640	-992.58031	860.18696	-745.66163	-1161.92388	927.24698	-763.70178	-1093.87546	808.52730	-723.27663	-1042.24257	1097.56998	-470.82833	-1221.92842	1213.13425	-534.49006	-1052.24704	1098.69990	-684.17873	-1224.97090	1209.75423	-617.43275	-897.85405	1538.37582	-574.01322	-852.21962	1469.57255	-430.74595	-860.88934	1480.16903	-720.56588	-815.56985	1422.82327	-555.39141	-819.47314	1421.73927	-593.81421	-889.44464	1356.54395	-372.02745	-1080.05747	1237.19875	-348.60778	-1035.58494	1223.22440	-300.78151	-1005.52888	1132.98046	-301.62217	-1009.74991	992.56051	-318.51857	-1039.97368	990.54270	-296.28124	-907.18393	1389.48216	-796.33603	-1080.36153	1239.66537	-814.99143	-1035.56922	1242.03125	-866.61439	-1008.07794	1136.47232	-870.21196	-995.36984	1012.65537	-852.23170	-1032.15361	1009.35845	-870.45914	-1153.82447	1053.49224	-469.31456	-1160.62260	1054.44044	-676.70862	-1135.97132	1072.38212	-495.29902	-1141.13500	1066.64630	-636.05581	
70	0.69000000	-973.62502	717.54815	-429.38114	-952.92973	641.74240	-432.96028	-1188.22293	405.11759	-435.24421	-1252.91564	380.83127	-477.06341	-1093.46377	349.26282	-410.45795	-1051.99483	360.95147	-465.14798	-968.08958	712.60369	-721.69000	-963.50984	615.91728	-704.91644	-1188.32994	411.07745	-712.18562	-1256.33762	378.54591	-667.71045	-1101.10048	351.55868	-740.76277	-1050.13855	361.85401	-687.88374	-1027.12317	556.88542	-421.22792	-1001.31205	693.21632	-398.28381	-1086.46535	609.20968	-393.29129	-1014.46860	671.85379	-752.66558	-1089.87427	574.45026	-760.43988	-1044.69055	953.73412	-382.14422	-987.59844	856.83155	-397.54768	-1081.41947	800.82852	-423.74429	-1142.98902	897.33610	-399.93641	-1032.51463	804.55740	-399.20451	-1059.41890	974.14109	-767.45203	-987.64030	857.61887	-746.04085	-1158.96025	921.74457	-764.37936	-1089.05469	804.43864	-726.13404	-1040.35252	1090.79614	-471.86142	-1220.27956	1207.17783	-534.62786	-1050.56705	1092.65915	-684.66174	-1223.49112	1203.84167	-617.61286	-894.99568	1530.96044	-575.09428	-849.30070	1461.68634	-431.87979	-858.44891	1471.85523	-721.47110	-812.92273	1415.23498	-556.59904	-817.11249	1414.04008	-594.78990	-883.01432	1347.53005	-374.21934	-1068.18577	1220.00140	-348.57347	-1022.15278	1207.75803	-301.79784	-988.26402	1118.76240	-304.32059	-986.80268	977.72018	-324.00248	-1016.30702	974.90550	-300.24937	-901.20894	1379.22817	-796.27961	-1067.44687	1221.20194	-815.85923	-1021.80892	1224.52758	-865.79911	-989.01265	1120.73292	-868.23323	-971.47577	998.04044	-848.38725	-1007.73708	992.65028	-866.87592	-1152.14761	1047.01559	-470.06285	-1159.21363	1048.61310	-677.44256	-1134.10483	1066.35705	-496.08234	-1139.53779	1060.71185	-636.47875	
71	0.70000000	-966.32227	714.46576	-429.38646	-946.70951	638.47025	-433.86337	-1186.68171	407.22062	-435.15441	-1251.74533	383.44883	-477.51861	-1093.17391	349.32563	-410.62030	-1051.24318	360.43683	-465.17332	-962.63228	709.30336	-722.29914	-958.85749	612.56381	-705.28202	-1187.36161	411.78385	-712.28835	-1255.83943	379.87119	-667.80297	-1100.87981	351.44176	-740.88724	-1049.77287	361.41814	-688.16510	-1022.20817	555.12615	-421.54382	-993.99739	691.64497	-399.17122	-1080.51575	608.27922	-393.78209	-1009.22663	668.77227	-752.28311	-1085.79452	573.03269	-761.19438	-1042.38841	948.15796	-381.97788	-981.89523	853.89689	-397.54604	-1075.37171	795.69958	-424.37246	-1138.75653	891.05221	-400.66210	-1026.59999	799.69681	-399.67931	-1057.58832	969.67985	-769.05060	-984.27820	853.62445	-746.82926	-1156.25098	915.84299	-763.56494	-1084.48096	800.14132	-728.38302	-1038.61718	1084.14121	-472.72685	-1218.57501	1200.95890	-534.72529	-1048.98424	1086.67099	-685.11827	-1222.06670	1197.85689	-617.74338	-892.29131	1523.64351	-576.25721	-846.46883	1453.99172	-433.13775	-856.21588	1463.68715	-722.35178	-810.47579	1407.62189	-557.50781	-814.67955	1406.50515	-595.85981	-876.51951	1338.80911	-376.54604	-1055.43422	1203.13199	-348.92023	-1008.01004	1192.85253	-302.95316	-969.96713	1105.39853	-307.04014	-962.31387	964.41931	-328.99580	-991.17500	960.32607	-304.26333	-895.21372	1369.39391	-796.08717	-1053.59492	1203.10506	-816.59665	-1007.15307	1207.82824	-864.95481	-968.67520	1105.81068	-865.88437	-946.22420	984.64094	-844.17675	-981.83452	977.08357	-862.98594	-1150.48381	1040.48796	-470.74127	-1157.77903	1042.72562	-678.10781	-1132.19306	1060.06223	-496.65834	-1138.08707	1054.82523	-636.79047	
72	0.71000000	-959.09093	711.40896	-429.24245	-940.52367	635.30040	-434.51190	-1185.23183	409.11286	-435.43414	-1250.53494	386.07762	-478.01730	-1092.85613	349.31794	-410.97424	-1050.54315	359.97786	-465.27699	-957.26346	706.00777	-723.02816	-954.42754	609.23015	-705.65644	-1186.44134	412.36870	-712.03505	-1255.32340	381.24529	-667.88214	-1100.70705	351.31375	-740.90588	-1049.38614	361.05421	-688.61332	-1017.39511	553.27830	-421.93263	-986.62040	689.68886	-400.38035	-1074.72076	607.36027	-394.29856	-1003.85687	666.15634	-752.86364	-1081.78238	571.59450	-761.88810	-1039.61256	943.02459	-382.18131	-977.32756	850.37725	-397.49891	-1069.25596	790.54117	-424.78447	-1134.48177	885.15894	-400.73591	-1020.56613	795.49460	-399.84453	-1055.55613	965.20458	-770.24026	-981.76870	849.10994	-748.15171	-1153.72567	909.69484	-761.72749	-1080.29705	795.37194	-729.12076	-1037.23993	1077.74874	-473.02684	-1216.86807	1194.77159	-534.86638	-1047.48291	1080.71190	-685.63701	-1220.60121	1191.79274	-617.90452	-889.71045	1516.43761	-577.39398	-843.67321	1446.44225	-434.69313	-854.03608	1455.81994	-723.21635	-807.99106	1400.26063	-558.66782	-812.31770	1399.18161	-596.88449	-869.87317	1330.43202	-378.81811	-1041.81104	1186.77051	-349.47454	-993.21350	1178.61923	-304.15434	-950.78884	1093.11026	-309.98778	-936.29628	953.07753	-333.25415	-964.61969	947.13210	-308.10183	-889.10103	1359.93640	-795.85566	-1038.71695	1185.59724	-816.90521	-991.60615	1192.29514	-864.43563	-947.63466	1092.10763	-863.09033	-919.59324	972.59653	-839.46345	-954.38597	962.89095	-858.76805	-1149.03352	1034.12897	-471.23062	-1156.32431	1036.79682	-678.59331	-1130.58333	1053.87375	-496.77876	-1136.88979	1048.84160	-637.04576	
73	0.72000000	-952.07847	708.42686	-428.98699	-934.44312	632.15955	-435.03250	-1183.74097	410.51662	-436.04242	-1249.31349	388.69248	-478.53227	-1092.54304	349.26061	-411.35104	-1049.81843	359.58403	-465.33455	-951.85151	702.77939	-724.11749	-950.10820	605.92126	-705.96703	-1185.49560	412.83709	-711.61964	-1254.68075	382.60961	-667.79313	-1100.51127	351.19036	-740.92733	-1048.93569	360.88154	-689.21878	-1012.70001	551.27922	-422.52298	-979.32885	687.57477	-401.08814	-1069.18460	606.38635	-394.71807	-998.57403	663.35454	-753.36983	-1077.85918	569.85369	-761.99526	-1036.22633	938.70201	-382.80035	-972.75095	846.84435	-397.83233	-1063.28708	785.58674	-424.88554	-1130.16362	879.50600	-400.64538	-1014.51771	791.71984	-400.02629	-1053.28301	960.66679	-770.76139	-978.71029	845.24212	-749.56769	-1151.05543	903.85109	-761.08555	-1076.41554	790.32245	-728.62868	-1035.66374	1071.41146	-473.41073	-1215.14451	1188.73476	-535.07987	-1045.91137	1074.91077	-686.46272	-1219.02741	1185.73407	-618.08902	-887.17111	1509.40106	-578.39736	-840.88698	1439.20243	-436.30746	-851.81151	1448.26279	-723.99142	-804.66225	1393.81957	-560.92744	-810.36395	1392.03568	-597.67309	-863.03788	1322.73134	-380.72849	-1027.42477	1170.95160	-350.07214	-977.82462	1165.16732	-305.39485	-930.87830	1082.04655	-312.91922	-909.01859	943.39303	-337.40226	-936.72944	935.62847	-311.87551	-882.87934	1351.02732	-795.66100	-1022.85180	1168.92012	-816.95302	-975.37375	1177.77857	-863.78070	-926.07213	1079.97836	-860.11019	-891.68448	962.34237	-834.33403	-925.50661	950.46055	-854.12314	-1147.40248	1027.82424	-471.86631	-1154.79263	1030.98543	-679.21753	-1128.97396	1047.89221	-497.06366	-1135.54854	1042.81133	-637.61487	
74	0.73000000	-945.39219	705.42718	-428.77518	-928.48809	629.05026	-435.21399	-1182.07956	411.90778	-436.47784	-1248.07172	391.24714	-478.95064	-1092.23651	349.25820	-411.55376	-1049.03681	359.21121	-465.34480	-946.50481	699.55489	-725.18149	-945.85604	602.66852	-706.01898	-1184.44883	413.49362	-711.46134	-1253.95693	384.02653	-667.57051	-1100.23256	351.10099	-741.03294	-1048.49600	360.69869	-689.62205	-1008.15910	549.22763	-423.13928	-972.31193	685.45190	-401.22902	-1063.89791	605.37555	-395.01314	-993.41821	660.48540	-753.63424	-1073.99638	567.94016	-761.78173	-1032.71706	934.53633	-383.44215	-967.92740	843.57575	-398.39810	-1057.53809	780.84250	-424.88919	-1125.84614	873.86530	-400.89367	-1008.71521	787.78573	-400.36930	-1050.88555	956.04555	-770.87850	-975.17505	841.69441	-750.45362	-1148.16759	898.33176	-761.81405	-1072.62283	785.21030	-727.55377	-1033.52509	1065.16106	-474.26183	-1213.31625	1182.68110	-535.24586	-1044.48415	1069.31351	-687.73624	-1217.41273	1179.79142	-618.24569	-884.69324	1502.60250	-579.30383	-838.06402	1432.32616	-437.74077	-849.59249	1441.03058	-724.63787	-800.67539	1388.14606	-563.74073	-808.63666	1385.08549	-598.24709	-856.04658	1315.87700	-382.30214	-1012.38984	1155.78825	-350.80055	-961.91318	1152.66115	-306.66188	-910.28607	1072.34079	-315.56926	-880.66261	935.45953	-341.74802	-907.60106	925.99990	-315.85805	-876.61837	1342.92638	-795.54602	-1006.24215	1153.34582	-817.45470	-958.58347	1164.25891	-862.76392	-903.73157	1069.54317	-857.14523	-862.67280	954.42072	-829.08294	-895.42970	940.28818	-849.11044	-1145.26587	1021.54758	-472.71721	-1153.31919	1025.30514	-680.03276	-1127.05467	1041.75217	-497.77088	-1134.00653	1036.84861	-638.62030	
